<svg width="52" height="52" viewBox="0 0 52 52" fill="currentColor" xmlns="http://www.w3.org/2000/svg">
<path d="M18.8809 37.5039C17.8262 37.5039 17.0286 37.237 16.4883 36.7031C15.9479 36.1693 15.6777 35.3783 15.6777 34.3301V24.291C15.6777 23.2428 15.9479 22.4518 16.4883 21.918C17.0286 21.3841 17.8262 21.1172 18.8809 21.1172H33.1094C34.1641 21.1172 34.9616 21.3874 35.502 21.9277C36.0488 22.4616 36.3223 23.2493 36.3223 24.291V34.3301C36.3223 35.3717 36.0488 36.1595 35.502 36.6934C34.9616 37.2337 34.1641 37.5039 33.1094 37.5039H18.8809ZM18.998 35.5898H32.9922C33.4414 35.5898 33.7865 35.4694 34.0273 35.2285C34.2747 34.9941 34.3984 34.6393 34.3984 34.1641V24.457C34.3984 23.9818 34.2747 23.627 34.0273 23.3926C33.7865 23.1517 33.4414 23.0312 32.9922 23.0312H18.998C18.5423 23.0312 18.194 23.1517 17.9531 23.3926C17.7188 23.627 17.6016 23.9818 17.6016 24.457V34.1641C17.6016 34.6393 17.7188 34.9941 17.9531 35.2285C18.194 35.4694 18.5423 35.5898 18.998 35.5898ZM17.8262 19.5254C17.8978 19.0632 18.0573 18.7051 18.3047 18.4512C18.5586 18.1973 18.946 18.0703 19.4668 18.0703H32.5332C33.054 18.0703 33.4382 18.1973 33.6855 18.4512C33.9395 18.7051 34.1022 19.0632 34.1738 19.5254H17.8262ZM19.8184 16.7031C19.8444 16.2669 19.9844 15.9382 20.2383 15.7168C20.4987 15.4889 20.8633 15.375 21.332 15.375H30.668C31.1367 15.375 31.498 15.4889 31.752 15.7168C32.0059 15.9382 32.1523 16.2669 32.1914 16.7031H19.8184Z" fill="black"/>
</svg>
