<svg width="52" height="52" viewBox="0 0 52 52" fill="currentColor" xmlns="http://www.w3.org/2000/svg">
<path d="M23.3438 35.0332H28.6465V29.3984C28.6465 29.1706 28.5781 28.9883 28.4414 28.8516C28.3047 28.7148 28.1224 28.6465 27.8945 28.6465H24.1055C23.8776 28.6465 23.6921 28.7148 23.5488 28.8516C23.4121 28.9883 23.3438 29.1706 23.3438 29.3984V35.0332ZM17.2305 34.6621V27.2012L25.3945 20.3555C25.7917 20.0169 26.1921 20.0169 26.5957 20.3555L34.7598 27.2012V34.6621C34.7598 35.3652 34.5514 35.9154 34.1348 36.3125C33.7181 36.7096 33.1517 36.9082 32.4355 36.9082H19.5547C18.832 36.9082 18.2624 36.7096 17.8457 36.3125C17.4355 35.9154 17.2305 35.3652 17.2305 34.6621ZM15.0723 26.7715C14.7598 26.7715 14.5124 26.6803 14.3301 26.498C14.1543 26.3092 14.0664 26.0879 14.0664 25.834C14.0664 25.528 14.1934 25.2708 14.4473 25.0625L24.623 16.5176C25.0462 16.1595 25.502 15.9805 25.9902 15.9805C26.485 15.9805 26.9408 16.1595 27.3574 16.5176L37.5332 25.0625C37.7936 25.2708 37.9238 25.528 37.9238 25.834C37.9238 26.0879 37.8327 26.3092 37.6504 26.498C37.4746 26.6803 37.2305 26.7715 36.918 26.7715C36.7682 26.7715 36.625 26.7389 36.4883 26.6738C36.3581 26.6022 36.2344 26.5176 36.1172 26.4199L26.4102 18.2754C26.2799 18.1647 26.14 18.1094 25.9902 18.1094C25.847 18.1094 25.7103 18.1647 25.5801 18.2754L15.8828 26.4199C15.7591 26.5176 15.6289 26.6022 15.4922 26.6738C15.362 26.7389 15.222 26.7715 15.0723 26.7715ZM32.1914 21.1074V18.8418C32.1914 18.6204 32.2565 18.4447 32.3867 18.3145C32.5234 18.1842 32.6992 18.1191 32.9141 18.1191H34.2324C34.4538 18.1191 34.6296 18.1842 34.7598 18.3145C34.89 18.4447 34.9551 18.6204 34.9551 18.8418V23.4316L32.1914 21.1074Z" fill="black"/>
</svg>
