<svg width="52" height="52" viewBox="0 0 52 52" fill="currentColor" xmlns="http://www.w3.org/2000/svg">
<path fill-rule="evenodd" clip-rule="evenodd" d="M20.8025 19.3056C20.9548 18.2658 21.4264 17.2964 22.1541 16.527C22.8818 15.7576 23.8311 15.2249 24.875 15V17.4625C24.875 17.7558 24.9935 18.0371 25.2045 18.2445C25.4155 18.4519 25.7016 18.5684 26 18.5684C26.2984 18.5684 26.5845 18.4519 26.7955 18.2445C27.0065 18.0371 27.125 17.7558 27.125 17.4625V15C28.1687 15.2252 29.1176 15.758 29.845 16.5274C30.5725 17.2967 31.0438 18.266 31.196 19.3056H31.625C31.9234 19.3056 32.2095 19.4221 32.4205 19.6295C32.6315 19.8369 32.75 20.1182 32.75 20.4115C32.75 20.7048 32.6315 20.9861 32.4205 21.1935C32.2095 21.4009 31.9234 21.5174 31.625 21.5174H31.25C31.25 22.8862 30.6969 24.1989 29.7123 25.1667C28.7277 26.1346 27.3924 26.6783 26 26.6783C24.6076 26.6783 23.2723 26.1346 22.2877 25.1667C21.3031 24.1989 20.75 22.8862 20.75 21.5174H20.375C20.0766 21.5174 19.7905 21.4009 19.5795 21.1935C19.3685 20.9861 19.25 20.7048 19.25 20.4115C19.25 20.1182 19.3685 19.8369 19.5795 19.6295C19.7905 19.4221 20.0766 19.3056 20.375 19.3056H20.8025ZM26 24.4665C25.2044 24.4665 24.4413 24.1558 23.8787 23.6027C23.3161 23.0497 23 22.2996 23 21.5174H29C29 22.2996 28.6839 23.0497 28.1213 23.6027C27.5587 24.1558 26.7956 24.4665 26 24.4665ZM17.75 33.3137C17.75 33.0129 18.08 32.1208 19.73 31.1623C19.8402 31.0986 19.9517 31.0371 20.0645 30.978L21.515 34.7882H19.25C18.8522 34.7882 18.4706 34.6329 18.1893 34.3563C17.908 34.0798 17.75 33.7047 17.75 33.3137ZM23.921 34.7882L22.1525 30.1552C23.4033 29.8018 24.6986 29.6241 26 29.6273C27.395 29.6273 28.7 29.8264 29.8475 30.1538L28.0805 34.7882H23.921ZM30.4835 34.7882H32.75C33.1478 34.7882 33.5294 34.6329 33.8107 34.3563C34.092 34.0798 34.25 33.7047 34.25 33.3137C34.25 33.0129 33.92 32.1208 32.27 31.1623C32.1598 31.0986 32.0483 31.0371 31.9355 30.978L30.4835 34.7882ZM26 27.4155C20.225 27.4155 15.5 30.3646 15.5 33.3137C15.5 34.2913 15.8951 35.229 16.5983 35.9203C17.3016 36.6116 18.2554 37 19.25 37H32.75C33.7446 37 34.6984 36.6116 35.4017 35.9203C36.1049 35.229 36.5 34.2913 36.5 33.3137C36.5 30.3646 31.775 27.4155 26 27.4155Z" fill="#333333"/>
</svg>
