<svg width="38" height="38" viewBox="0 0 38 38" fill="none" xmlns="http://www.w3.org/2000/svg">
<path d="M19 1C28.9411 1 37 9.05887 37 19C37 28.9411 28.9411 37 19 37C9.05887 37 1 28.9411 1 19C1 9.05887 9.05887 1 19 1Z" stroke="black" stroke-linecap="round" stroke-linejoin="round"/>
<path d="M22 24V25C22 26.6569 20.6569 28 19 28C17.3431 28 16 26.6569 16 25V24M22 24H16M22 24H25.5905C25.973 24 26.1652 24 26.3201 23.9478C26.616 23.848 26.8475 23.6156 26.9473 23.3198C26.9997 23.1643 26.9997 22.9715 26.9997 22.5859C26.9997 22.4172 26.9995 22.3329 26.9863 22.2524C26.9614 22.1004 26.9024 21.9563 26.8126 21.8312C26.7651 21.7651 26.7048 21.7048 26.5858 21.5858L26.1963 21.1963C26.0706 21.0706 26 20.9001 26 20.7224V17C26 13.134 22.866 9.99999 19 10C15.134 10 12 13.134 12 17V20.7224C12 20.9002 11.9292 21.0706 11.8036 21.1963L11.4141 21.5858C11.2948 21.7051 11.235 21.765 11.1875 21.8312C11.0977 21.9564 11.0381 22.1004 11.0132 22.2524C11 22.3329 11 22.4172 11 22.586C11 22.9715 11 23.1642 11.0525 23.3197C11.1523 23.6156 11.3848 23.848 11.6807 23.9478C11.8356 24 12.027 24 12.4096 24H16" stroke="black" stroke-linecap="round" stroke-linejoin="round"/>
</svg>
