<svg width="52" height="52" viewBox="0 0 52 52" fill="currentColor" xmlns="http://www.w3.org/2000/svg">
<path d="M21.918 21.7812C21.7878 21.7812 21.6738 21.7357 21.5762 21.6445C21.485 21.5469 21.4395 21.4297 21.4395 21.293C21.4395 21.1562 21.485 21.0456 21.5762 20.9609C21.6738 20.8698 21.7878 20.8242 21.918 20.8242H30.0723C30.2155 20.8242 30.3294 20.8698 30.4141 20.9609C30.5052 21.0456 30.5508 21.1562 30.5508 21.293C30.5508 21.4297 30.5052 21.5469 30.4141 21.6445C30.3294 21.7357 30.2155 21.7812 30.0723 21.7812H21.918ZM20.6484 23.9688C20.5052 23.9688 20.3848 23.9199 20.2871 23.8223C20.196 23.7246 20.1504 23.6107 20.1504 23.4805C20.1504 23.3372 20.196 23.2168 20.2871 23.1191C20.3848 23.015 20.5052 22.9629 20.6484 22.9629H31.3516C31.4883 22.9629 31.6055 23.015 31.7031 23.1191C31.8008 23.2168 31.8496 23.3372 31.8496 23.4805C31.8496 23.6107 31.8008 23.7246 31.7031 23.8223C31.6055 23.9199 31.4883 23.9688 31.3516 23.9688H20.6484ZM17.5918 34.9844C16.5371 34.9844 15.7396 34.7174 15.1992 34.1836C14.6589 33.6497 14.3887 32.8587 14.3887 31.8105V26.0391C14.3887 25.6875 14.4049 25.388 14.4375 25.1406C14.4766 24.8867 14.5417 24.6589 14.6328 24.457C14.7305 24.2552 14.8672 24.0534 15.043 23.8516L18.3828 19.7891C18.7604 19.3203 19.1022 18.9525 19.4082 18.6855C19.7207 18.4121 20.056 18.2201 20.4141 18.1094C20.7786 17.9987 21.2376 17.9434 21.791 17.9434H30.1992C30.7526 17.9434 31.2116 17.9987 31.5762 18.1094C31.9408 18.2201 32.276 18.4121 32.582 18.6855C32.888 18.9525 33.2331 19.3171 33.6172 19.7793L36.957 23.8516C37.1263 24.0534 37.2565 24.2552 37.3477 24.457C37.4453 24.6589 37.5104 24.8867 37.543 25.1406C37.582 25.388 37.6016 25.6875 37.6016 26.0391V31.8105C37.6016 32.8587 37.3314 33.6497 36.791 34.1836C36.2572 34.7174 35.4596 34.9844 34.3984 34.9844H17.5918ZM16.7812 25.248H23.1094C23.3633 25.248 23.5488 25.3262 23.666 25.4824C23.7897 25.6322 23.8516 25.8047 23.8516 26V26.0195C23.8516 26.3776 23.9395 26.7259 24.1152 27.0645C24.291 27.3965 24.5384 27.6732 24.8574 27.8945C25.1764 28.1159 25.5573 28.2266 26 28.2266C26.4362 28.2266 26.8138 28.1159 27.1328 27.8945C27.4583 27.6732 27.709 27.3965 27.8848 27.0645C28.0605 26.7259 28.1484 26.3776 28.1484 26.0195V26C28.1484 25.8047 28.207 25.6322 28.3242 25.4824C28.4414 25.3262 28.6302 25.248 28.8906 25.248H35.2188C35.375 25.248 35.4694 25.1927 35.502 25.082C35.541 24.9714 35.5182 24.8639 35.4336 24.7598L31.8789 20.3359C31.6576 20.056 31.4167 19.8542 31.1562 19.7305C30.9023 19.6068 30.6094 19.5449 30.2773 19.5449H21.7129C21.3874 19.5449 21.0944 19.6068 20.834 19.7305C20.5736 19.8542 20.3327 20.056 20.1113 20.3359L16.5566 24.7598C16.4785 24.8639 16.4557 24.9714 16.4883 25.082C16.5208 25.1927 16.6185 25.248 16.7812 25.248ZM17.6797 33.0605H34.3105C34.7598 33.0605 35.1048 32.9434 35.3457 32.709C35.5866 32.4746 35.707 32.123 35.707 31.6543V26.9375H29.7891C29.6914 27.5169 29.4668 28.0378 29.1152 28.5C28.7702 28.9557 28.3275 29.3171 27.7871 29.584C27.2533 29.8509 26.6576 29.9844 26 29.9844C25.3424 29.9844 24.7435 29.8542 24.2031 29.5938C23.6693 29.3268 23.2266 28.9655 22.875 28.5098C22.5234 28.0475 22.2988 27.5234 22.2012 26.9375H16.2832V31.6543C16.2832 32.123 16.4036 32.4746 16.6445 32.709C16.8854 32.9434 17.2305 33.0605 17.6797 33.0605Z" fill="#333333"/>
</svg>
